Coordinates
version=1
nRows=13
nColumns=40
inDegrees=yes

Units are S.I. units (second, meters, Newtons, ...)
Angles are in degrees.

endheader
time	pelvis_tilt	pelvis_list	pelvis_rotation	pelvis_tx	pelvis_ty	pelvis_tz	hip_flexion_r	hip_adduction_r	hip_rotation_r	knee_angle_r	knee_angle_r_beta	ankle_angle_r	subtalar_angle_r	mtp_angle_r	hip_flexion_l	hip_adduction_l	hip_rotation_l	knee_angle_l	knee_angle_l_beta	ankle_angle_l	subtalar_angle_l	mtp_angle_l	lumbar_extension	lumbar_bending	lumbar_rotation	arm_flex_r	arm_add_r	arm_rot_r	elbow_flex_r	pro_sup_r	wrist_flex_r	wrist_dev_r	arm_flex_l	arm_add_l	arm_rot_l	elbow_flex_l	pro_sup_l	wrist_flex_l	wrist_dev_l
      4.44000000	     -6.48264387	     -4.96478885	      1.06696889	      0.77926972	      0.92754994	      0.52348930	     16.17693266	      3.91203216	    -13.37963395	     17.27044751	     17.27044751	      9.63589089	     -1.82257188	     -2.26291984	     30.97634050	    -11.04594113	      2.27232524	     59.63279366	     59.63279366	     11.28083796	    -19.04474810	     16.95390805	    -10.86824865	      5.94436440	      1.92042628	      8.32580210	    -16.96075366	     -3.55570601	     53.92843526	     45.67366571	      0.00000000	      0.00000000	      9.91579472	     -7.63531975	    -11.40146093	     46.32589961	     45.48040298	      0.00000000	      0.00000000
      4.45321429	     -6.60079397	     -4.77293149	      1.43612874	      0.77775200	      0.92766315	      0.52426236	     15.84603825	      3.77219174	    -13.39155957	     17.14972190	     17.14972190	      9.93999857	     -2.09944135	     -2.37324588	     32.07908427	    -10.81428711	      2.19676745	     57.20860933	     57.20860933	     11.64452325	    -19.10121570	     16.97038879	    -10.90515176	      5.52523894	      1.44492212	     10.44344230	    -16.91834706	     -3.65993670	     55.86027436	     45.61804859	      0.00000000	      0.00000000	      8.88155195	     -7.86971186	    -11.44472818	     44.65044898	     45.47972345	      0.00000000	      0.00000000
      4.46642857	     -6.75915785	     -4.71323692	      1.81171171	      0.77622941	      0.92756210	      0.52496783	     15.54666326	      3.78234619	    -13.42419041	     16.98066080	     16.98066080	     10.17194301	     -2.48846348	     -2.56875601	     33.08125091	    -10.65544408	      2.17682585	     54.53391207	     54.53391207	     11.87807293	    -19.11845204	     16.77605303	    -10.88268989	      5.36328085	      1.44898398	     11.68768163	    -17.59872974	     -3.00497652	     59.47197436	     45.46790712	      0.00000000	      0.00000000	      8.80864808	     -7.70125643	    -11.95385988	     41.25263102	     45.57127656	      0.00000000	      0.00000000
      4.47964286	     -6.82224491	     -4.47050527	      2.14869444	      0.77484941	      0.92768885	      0.52554450	     15.15002044	      3.58682745	    -13.42738061	     16.85433979	     16.85433979	     10.48358765	     -2.73946283	     -2.63012086	     33.68304686	    -10.24420045	      2.05782912	     51.49463793	     51.49463793	     12.07986291	    -19.09788885	     16.95777183	    -10.97349514	      4.90272052	      1.34828417	     13.66254564	    -17.77320129	     -3.21733711	     61.22463899	     45.42496772	      0.00000000	      0.00000000	      7.90636827	     -7.78705589	    -12.01700256	     40.03593229	     45.57292263	      0.00000000	      0.00000000
      4.49285714	     -6.91353388	     -4.40709787	      2.51704472	      0.77343095	      0.92756638	      0.52596582	     14.83924335	      3.55089624	    -13.51845293	     16.80455105	     16.80455105	     10.79304684	     -2.99766600	     -2.74321999	     34.23286082	     -9.91935733	      2.11976469	     48.32556246	     48.32556246	     11.98458417	    -19.03736422	     16.43919247	    -11.06528666	      4.77214922	      1.55988629	     14.59336701	    -18.59162782	     -2.77715198	     65.54489212	     45.27010806	      0.00000000	      0.00000000	      8.21354448	     -7.55496355	    -12.76088347	     36.17266531	     45.71670142	      0.00000000	      0.00000000
      4.50607143	     -7.04350975	     -4.29191410	      2.85970584	      0.77204981	      0.92737333	      0.52621685	     14.58009926	      3.44026269	    -13.64274720	     16.78297235	     16.78297235	     11.10309747	     -3.19380387	     -2.78988793	     34.68981713	     -9.43136938	      2.28177371	     45.05813538	     45.05813538	     11.98536699	    -18.90912552	     16.35422923	    -11.09345029	      4.55780465	      1.25528206	     16.54160816	    -18.52916422	     -3.14098654	     67.70860033	     45.22261355	      0.00000000	      0.00000000	      7.34736249	     -7.68129915	    -12.96231289	     34.73320839	     45.74907102	      0.00000000	      0.00000000
      4.51928571	     -7.13775987	     -4.17046695	      3.17114469	      0.77077249	      0.92716789	      0.52629940	     14.31127897	      3.29924702	    -13.78281315	     16.83844526	     16.83844526	     11.49756706	     -3.23858546	     -2.72809017	     34.93475007	     -8.91473981	      2.44984860	     41.61284261	     41.61284261	     11.51808268	    -18.70426796	     15.04911090	    -11.18144903	      4.34125190	      1.58259978	     17.74255443	    -19.10516162	     -3.17962380	     70.83626347	     45.13819882	      0.00000000	      0.00000000	      7.22237921	     -7.57531023	    -13.54932955	     32.47759598	     45.87398437	      0.00000000	      0.00000000
      4.53250000	     -7.22670308	     -4.04603921	      3.49063907	      0.76960518	      0.92692664	      0.52616515	     14.04903088	      3.14398498	    -13.91555220	     16.91808507	     16.91808507	     11.84738216	     -3.42838506	     -2.79023703	     35.11023530	     -8.28636082	      2.83764336	     38.23406456	     38.23406456	     11.52614922	    -18.34106201	     14.99862167	    -11.20274738	      4.14693189	      1.25516476	     19.64017898	    -18.91975797	     -3.43688904	     72.70563073	     45.09685876	      0.00000000	      0.00000000	      6.27297362	     -7.67327847	    -13.63876292	     31.54293891	     45.88238337	      0.00000000	      0.00000000
      4.54571429	     -7.40143550	     -4.00071805	      3.81080712	      0.76839697	      0.92644228	      0.52579081	     13.88163895	      3.02965202	    -14.17049677	     16.99815671	     16.99815671	     12.23281201	     -3.39342906	     -2.77131843	     35.38735674	     -7.74341324	      3.21661997	     34.97873279	     34.97873279	     11.21484267	    -17.71807035	     14.04876582	    -11.17374985	      4.12605251	      1.11608403	     21.37613698	    -19.04576235	     -3.44689284	     75.22013767	     45.02938318	      0.00000000	      0.00000000	      5.47764341	     -7.65869728	    -13.80531202	     30.47678234	     45.91169562	      0.00000000	      0.00000000
      4.55892857	     -7.49038391	     -3.96547708	      4.06706006	      0.76741941	      0.92605409	      0.52541894	     13.61451682	      2.94198998	    -14.36534621	     17.10591733	     17.10591733	     12.73566318	     -3.26902525	     -2.52188395	     35.39636104	     -7.30964863	      3.41689522	     31.61740684	     31.61740684	     10.45639448	    -16.83323447	     11.69901643	    -11.21169998	      4.05983415	      1.44359670	     22.54007631	    -19.53124588	     -3.41567001	     78.07023496	     44.96206874	      0.00000000	      0.00000000	      4.99129703	     -7.54929146	    -14.11704140	     29.46553383	     45.98640332	      0.00000000	      0.00000000
      4.57214286	     -7.70150540	     -4.11181834	      4.34199218	      0.76639201	      0.92538973	      0.52492101	     13.48813496	      3.04928171	    -14.55111730	     17.16913422	     17.16913422	     12.99927886	     -3.41253342	     -2.61176826	     35.75084233	     -7.01325395	      3.76940434	     28.84387770	     28.84387770	     10.70620075	    -15.53855852	     11.82834490	    -11.02149957	      4.21088076	      1.73110488	     24.27106935	    -19.79497141	     -3.71202502	     79.05688706	     44.94882490	      0.00000000	      0.00000000	      4.23834163	     -7.41003276	    -14.12427153	     29.08682614	     45.97752955	      0.00000000	      0.00000000
      4.58535714	     -7.68509643	     -3.93343505	      4.55709019	      0.76582654	      0.92527452	      0.52426576	     12.98648293	      2.83571228	    -14.64460323	     17.11508772	     17.11508772	     13.36150938	     -3.34968953	     -2.60269838	     35.55003087	     -6.54296225	      3.59079050	     25.94557384	     25.94557384	     10.83787065	    -13.93726300	     11.56452339	    -11.14723001	      4.00131302	      1.33155720	     25.98407354	    -19.12872256	     -3.67069989	     81.30266538	     44.88616748	      0.00000000	      0.00000000	      3.21491771	     -7.57141094	    -14.14769926	     28.48485359	     45.97269071	      0.00000000	      0.00000000
      4.59857143	     -7.75536285	     -4.00049460	      4.76305307	      0.76525897	      0.92483547	      0.52352540	     12.58782138	      2.86892984	    -14.84342792	     17.04471762	     17.04471762	     13.71306154	     -3.22616117	     -2.58056152	     35.59825564	     -6.30939526	      3.45181674	     23.53715640	     23.53715640	     10.85634470	    -12.48344174	     11.25228505	    -11.10444413	      4.09221906	      1.32426706	     27.50976512	    -18.93793793	     -3.62309787	     83.17709416	     44.83597767	      0.00000000	      0.00000000	      2.30614646	     -7.53975563	    -14.16175985	     28.17131782	     45.96667599	      0.00000000	      0.00000000
